<svg width="200" height="400" viewBox="0 0 200 400" fill="none" xmlns="http://www.w3.org/2000/svg">
<g class="robot">
    <rect width="200" height="400" fill="var(--team-color, #5B3C82)"/>
    <path d="M58 238C55.7909 238 54 239.791 54 242C54 244.209 55.7909 246 58 246V242V238ZM160.828 244.828C162.391 243.266 162.391 240.734 160.828 239.172L135.373 213.716C133.81 212.154 131.278 212.154 129.716 213.716C128.154 215.278 128.154 217.81 129.716 219.373L152.343 242L129.716 264.627C128.154 266.19 128.154 268.722 129.716 270.284C131.278 271.846 133.81 271.846 135.373 270.284L160.828 244.828ZM58 242V246H158V242V238H58V242Z" fill="white"/>
    <path d="M54 242C54 244.209 55.7909 246 58 246C60.2091 246 62 244.209 62 242H58H54ZM60.8284 139.172C59.2663 137.609 56.7337 137.609 55.1716 139.172L29.7157 164.627C28.1536 166.19 28.1536 168.722 29.7157 170.284C31.2778 171.846 33.8105 171.846 35.3726 170.284L58 147.657L80.6274 170.284C82.1895 171.846 84.7222 171.846 86.2843 170.284C87.8464 168.722 87.8464 166.19 86.2843 164.627L60.8284 139.172ZM58 242H62L62 142H58H54L54 242H58Z" fill="white"/>
    <path d="M98.1847 254.818L102.991 263.972L107.918 254.818H115.366L107.781 267.909L115.571 281H108.156L102.991 271.949L97.9119 281H90.4119L98.1847 267.909L90.6847 254.818H98.1847Z" fill="white"/>
    <path d="M51.3182 125.818C50.3977 125.818 49.5341 125.744 48.7273 125.597C47.9318 125.46 47.2727 125.284 46.75 125.068L48.3864 119.648C49.2386 119.909 50.0057 120.051 50.6875 120.074C51.3807 120.097 51.9773 119.938 52.4773 119.597C52.9886 119.256 53.4034 118.676 53.7216 117.858L54.1477 116.75L44.7557 89.8182H52.392L57.8125 109.045H58.0852L63.5568 89.8182H71.2443L61.0682 118.83C60.5795 120.239 59.9148 121.466 59.0739 122.511C58.2443 123.568 57.1932 124.381 55.9205 124.949C54.6477 125.528 53.1136 125.818 51.3182 125.818Z" fill="white"/>
</g>
</svg>
